<svg xmlns="http://www.w3.org/2000/svg" xmlns:xlink="http://www.w3.org/1999/xlink" width="40" height="40" viewBox="0 0 40 40">
    <defs>
        <path id="en9xuz8bha" d="M0 0.006L23 0.006 23 21.231 0 21.231z"/>
    </defs>
    <g fill="none" fill-rule="evenodd">
        <g>
            <g transform="translate(-1321 -1691) translate(1321 1691)">
                <rect width="40" height="40" fill="#FFEC00" rx="4"/>
                <g>
                    <g transform="translate(9 9) translate(0 .104)">
                        <mask id="h1d1o9sn2b" fill="#fff">
                            <use xlink:href="#en9xuz8bha"/>
                        </mask>
                        <path fill="#523E40" d="M11.5.006C5.149.006 0 4.066 0 9.074c0 3.237 2.152 6.078 5.39 7.682-.176.608-1.132 3.908-1.17 4.168 0 0-.023.194.104.269.126.074.274.016.274.016.362-.05 4.196-2.743 4.86-3.21.662.093 1.345.142 2.042.142 6.351 0 11.5-4.06 11.5-9.067C23 4.066 17.851.006 11.5.006z" mask="url(#h1d1o9sn2b)"/>
                    </g>
                </g>
            </g>
        </g>
    </g>
</svg>
