<svg xmlns="http://www.w3.org/2000/svg" width="40" height="40" viewBox="0 0 40 40">
    <g fill="none" fill-rule="evenodd">
        <g>
            <g transform="translate(-1375 -1691) translate(1375 1691)">
                <rect width="40" height="40" fill="#F1F1F1" rx="4"/>
                <path fill="#333236" d="M23.324 10.325L20.08 13.57c-.474.474-.474 1.243 0 1.717.475.474 1.243.474 1.717 0l3.244-3.244c.794-.794 2.086-.794 2.88 0s.794 2.086 0 2.88l-4.96 4.96c-.795.794-2.087.794-2.88 0-.475-.474-1.243-.474-1.717 0-.474.475-.474 1.243 0 1.717 1.74 1.741 4.573 1.74 6.313 0l4.96-4.96c1.741-1.741 1.741-4.573 0-6.314-1.74-1.74-4.572-1.74-6.313 0"/>
                <path fill="#333236" d="M19.146 23.697l-3.244 3.244c-.794.794-2.086.794-2.88 0s-.794-2.086 0-2.88l4.96-4.96c.795-.795 2.087-.795 2.88 0 .475.473 1.244.473 1.718 0 .474-.475.474-1.244 0-1.718-1.741-1.74-4.573-1.74-6.314 0l-4.96 4.96c-1.741 1.742-1.741 4.574 0 6.314 1.74 1.741 4.572 1.741 6.313 0l3.244-3.243c.474-.474.474-1.243 0-1.717s-1.243-.474-1.717 0"/>
            </g>
        </g>
    </g>
</svg>
